normalP052_grf.mot
version=1
nRows=10
nColumns=19
inDegrees=yes
endheader
time	1_ground_force_vx	1_ground_force_vy	1_ground_force_vz	1_ground_force_px	1_ground_force_py	1_ground_force_pz	1_ground_torque_x	1_ground_torque_y	1_ground_torque_z	2_ground_force_vx	2_ground_force_vy	2_ground_force_vz	2_ground_force_px	2_ground_force_py	2_ground_force_pz	2_ground_torque_x	2_ground_torque_y	2_ground_torque_z
            1.480000	         -166.813353	          823.349622	          -16.642503	            0.239588	            0.002820	           -0.213345	            0.170615	           -0.842113	            0.017022	            0.012658	            0.239910	            0.022638	            0.865277	            0.000723	           -0.284906	            0.044353	            0.000880	            0.029755
            1.481000	         -166.246882	          825.101470	          -16.631045	            0.239820	            0.002818	           -0.213145	            0.164884	           -0.818336	            0.016495	           -0.056702	            0.159123	           -0.008387	            0.865277	            0.000723	           -0.284906	           -0.073105	           -0.001225	            0.092052
            1.482000	         -165.589292	          828.288881	          -16.554954	            0.240107	            0.002817	           -0.213084	            0.164540	           -0.823041	            0.016450	           -0.025389	            0.319324	           -0.038673	            0.865277	            0.000723	           -0.284906	           -0.073100	            0.002209	            0.008956
            1.483000	         -164.923677	          829.960813	          -16.505329	            0.240205	            0.002816	           -0.213098	            0.163419	           -0.822389	            0.016355	           -0.004714	           -0.239868	           -0.009700	            0.865277	            0.000723	           -0.284906	           -0.022812	            0.002144	           -0.011919
            1.484000	         -164.208710	          832.351337	          -16.446385	            0.240331	            0.002816	           -0.213045	            0.160782	           -0.814983	            0.016103	            0.012296	            0.160212	            0.022236	            0.865277	            0.000723	           -0.284906	            0.061152	           -0.001459	            0.008879
            1.485000	         -163.359759	          833.942527	          -16.496478	            0.240498	            0.002814	           -0.212921	            0.155155	           -0.792056	            0.015668	           -0.010052	            0.319315	           -0.000265	            0.865277	            0.000723	           -0.284906	           -0.005848	            0.002940	            0.091923
            1.486000	         -162.488258	          835.454107	          -16.454891	            0.240583	            0.002814	           -0.212890	            0.152679	           -0.785019	            0.015462	            0.013651	            0.479374	            0.000258	            0.865277	            0.000723	           -0.284906	           -0.039392	           -0.003828	           -0.032899
            1.487000	         -161.492944	          837.282910	          -16.427877	            0.240940	            0.002812	           -0.212798	            0.146378	           -0.758917	            0.014890	           -0.040664	            0.319984	            0.007572	            0.865277	            0.000723	           -0.284906	           -0.005873	           -0.002786	           -0.032858
            1.488000	         -160.445244	          838.874099	          -16.332544	            0.240956	            0.002812	           -0.212716	            0.139942	           -0.731677	            0.014245	           -0.009683	            0.399350	           -0.015184	            0.865277	            0.000723	           -0.284906	           -0.056334	            0.006551	           -0.011738
            1.489000	         -159.269144	          840.144283	          -16.215034	            0.241049	            0.002811	           -0.212737	            0.135720	           -0.715925	            0.013818	           -0.003289	            0.079994	            0.006846	            0.865277	            0.000723	           -0.284906	           -0.022725	           -0.010711	           -0.053691
